<?xml version="1.0" encoding="utf-8"?>
<!-- Generator: Adobe Illustrator 19.1.0, SVG Export Plug-In . SVG Version: 6.00 Build 0)  -->
<!DOCTYPE svg PUBLIC "-//W3C//DTD SVG 1.1//EN" "http://www.w3.org/Graphics/SVG/1.1/DTD/svg11.dtd">
<svg version="1.1" id="Layer_1" xmlns="http://www.w3.org/2000/svg" xmlns:xlink="http://www.w3.org/1999/xlink" x="0px" y="0px"
	 viewBox="0 0 1280 806.4" enable-background="new 0 0 1280 806.4" xml:space="preserve">
<g>
	<polygon fill="#50B2BD" points="226.8,357.8 311,263 229.8,263 229.8,223.5 375.3,223.5 375.3,257.5 291.1,352.3 375.3,352.3 
		375.3,391.8 226.8,391.8 	"/>
	<path fill="#50B2BD" d="M568.2,308.2v-0.4c0-24.2-17.6-45.4-43.3-45.4c-25.5,0-42.4,20.6-42.4,45v0.4c0,24.2,17.6,45.4,43.1,45.4
		C551.2,352.9,568.2,332.4,568.2,308.2 M434.7,308.2v-0.4c0-48.2,38.8-87.4,90.8-87.4s90.4,38.6,90.4,87v0.4
		c0,48.2-38.8,87.4-90.8,87.4C473.1,394.9,434.7,356.3,434.7,308.2"/>
	<polygon fill="#50B2BD" points="682.5,223.5 729.2,223.5 729.2,350.8 810.7,350.8 810.7,391.8 682.5,391.8 	"/>
	<path fill="#50B2BD" d="M977.5,325.4l-18.7-47.7l-18.9,47.7H977.5z M936.7,222.5h45l71.5,169.3h-49.9L991,361.9h-64.9L914,391.8
		h-49L936.7,222.5z"/>
	<path fill="#50B2BD" d="M45.8,569.8h1188.6V45.5H45.8V569.8z M1280,615.6H0V-0.3h1280V615.6z"/>
</g>
<g>
	<path fill="#50B2BD" d="M64.1,782.8c1.1,4,1.3,7.4,1.3,7.4h0.2c0,0,0.2-3.6,1.3-7.4l11.7-49.2H92l-18.2,71.3h-15l-11-42
		c-1.3-4.7-1.9-9.3-1.9-9.3h-0.2c0,0-0.6,4.7-1.9,9.3l-10.8,42H18L0,733.6h13.4l11.2,49.2c0.8,4,1.3,7.4,1.3,7.4h0.2
		c0,0,0.2-3.4,1.3-7.4l12.7-49.2h11.2L64.1,782.8z"/>
	<path fill="#50B2BD" d="M123.3,733.6h42.6v11h-29.7v18.7h24v11h-24v19.1h31.4v11h-44.3L123.3,733.6L123.3,733.6z"/>
	<path fill="#50B2BD" d="M200.9,733.6h24.2c21.9,0,36.3,12.9,36.3,35.4s-14.4,35.6-36.3,35.6h-24.2V733.6z M224.5,793.6
		c14.4,0,23.8-8.5,23.8-24.6c0-15.9-9.3-24.4-23.8-24.4h-10.6v49H224.5z"/>
	<path fill="#50B2BD" d="M295.1,733.6h24.2c21.9,0,36.3,12.9,36.3,35.4s-14.4,35.6-36.3,35.6h-24.2V733.6z M318.7,793.6
		c14.4,0,23.8-8.5,23.8-24.6c0-15.9-9.3-24.4-23.8-24.4h-10.6v49H318.7z"/>
	<path fill="#50B2BD" d="M389.3,733.6h12.9v71.3h-12.9V733.6z"/>
	<path fill="#50B2BD" d="M440.2,733.6h12.9l26.9,41.2c2.8,4,5.9,11,5.9,11h0.2c0,0-0.6-6.8-0.6-11v-41.2h12.7v71.3h-12.7L458.6,764
		c-2.8-4-5.9-11-5.9-11h-0.2c0,0,0.6,6.8,0.6,11v40.9h-12.9V733.6z"/>
	<path fill="#50B2BD" d="M568.4,732.3c17.4,0,26.5,9.1,26.5,9.1l-6.4,9.5c0,0-7.6-6.8-18.9-6.8c-15.9,0-24.4,11-24.4,24.4
		c0,15.5,10.6,25.5,23.8,25.5c10.8,0,17.8-7.4,17.8-7.4v-8.3h-11v-11h22.5v37.6h-11v-3.4c0-1.5,0-3,0-3h-0.2c0,0-7.4,7.6-20.6,7.6
		c-18.7,0-34.8-14.4-34.8-36.9C531.7,748.4,547.2,732.3,568.4,732.3z"/>
	<path fill="#50B2BD" d="M677,733.6h23.1c7.6,0,11.2,0.6,14.4,1.9c7.2,3.2,11.7,10,11.7,19.5c0,8.5-4.5,16.5-12.1,19.5v0.2
		c0,0,1.1,1.1,2.3,3.6l14.6,26.5h-14.4l-14.2-26.5H690v26.5h-13V733.6L677,733.6z M701.6,766.9c7,0,11.2-4,11.2-11.2
		c0-6.8-3-11-12.9-11h-9.8V767h11.5V766.9z"/>
	<path fill="#50B2BD" d="M763.2,733.6h42.6v11h-29.7v18.7h24v11h-24v19.1h31.2v11h-44.1V733.6L763.2,733.6z"/>
	<path fill="#50B2BD" d="M872.2,732.3c17.4,0,26.5,9.1,26.5,9.1l-6.4,9.5c0,0-7.6-6.8-18.9-6.8c-15.9,0-24.4,11-24.4,24.4
		c0,15.5,10.6,25.5,23.8,25.5c10.8,0,17.8-7.4,17.8-7.4v-8.3h-11v-11h22.5v37.6h-11v-3.4c0-1.5,0-3,0-3l0,0c0,0-7.4,7.6-20.6,7.6
		c-18.7,0-34.8-14.4-34.8-36.9C835.5,748.4,851.2,732.3,872.2,732.3z"/>
	<path fill="#50B2BD" d="M936.7,733.6h12.9v71.3h-12.9V733.6z"/>
	<path fill="#50B2BD" d="M989.3,786.4c0,0,7.6,7.4,17.8,7.4c5.5,0,10.4-2.8,10.4-8.7c0-12.7-33.5-10.6-33.5-32.5
		c0-11.9,10.2-20.6,23.8-20.6c14,0,21.2,7.6,21.2,7.6l-5.5,10.6c0,0-6.8-6.2-15.7-6.2c-5.9,0-10.8,3.6-10.8,8.5
		c0,12.7,33.5,9.5,33.5,32.2c0,11.2-8.7,20.8-23.6,20.8c-15.9,0-24.6-9.8-24.6-9.8L989.3,786.4z"/>
	<path fill="#50B2BD" d="M1078,744.6h-23.3v-11h59.6v11H1091v60h-13V744.6z"/>
	<path fill="#50B2BD" d="M1143.8,733.6h22.9c7.6,0,11.2,0.6,14.4,1.9c7.2,3.2,11.7,10,11.7,19.5c0,8.5-4.5,16.5-12.1,19.5v0.2
		c0,0,1.1,1.1,2.3,3.6l14.6,26.5h-14.4l-14.2-26.5h-12.5v26.5h-12.9v-71.3h0.2V733.6z M1168.2,766.9c7,0,11.2-4,11.2-11.2
		c0-6.8-3-11-12.9-11h-9.8V767h11.5L1168.2,766.9L1168.2,766.9z"/>
	<path fill="#50B2BD" d="M1243.3,774.9l-23.8-41.4h14.6l11,21c2.3,4.5,4.2,9.5,4.2,9.5h0.2c0,0,1.9-5.1,4.2-9.5l11-21h14.6
		l-23.8,41.4v29.7H1243v-29.7H1243.3z"/>
</g>
</svg>
