<?xml version="1.0" encoding="utf-8"?>
<!-- Generator: Adobe Illustrator 18.1.1, SVG Export Plug-In . SVG Version: 6.00 Build 0)  -->
<svg version="1.1" id="Layer_1" xmlns="http://www.w3.org/2000/svg" xmlns:xlink="http://www.w3.org/1999/xlink" x="0px" y="0px"
	 viewBox="0 0 640 404" enable-background="new 0 0 640 404" xml:space="preserve">
<g>
	<defs>
		<path id="SVGID_4_" d="M113.4,179.1l42.1-47.4h-40.7V112h72.9v16.9l-42.1,47.4h42.1V196h-74.3V179.1z M284.1,154.2
			c0,12.1-8.5,22.4-21.4,22.4c-12.7,0-21.5-10.6-21.5-22.7v-0.2c0-12.1,8.5-22.4,21.3-22.4c12.8,0,21.6,10.6,21.6,22.7V154.2
			 M217.4,154.2c0,24.1,19.2,43.5,45.1,43.5c25.9,0,45.4-19.6,45.4-43.7v-0.2c0-24.1-19.2-43.5-45.1-43.5
			c-25.9,0-45.4,19.6-45.4,43.7V154.2 M341.3,196h64v-20.4h-40.7V112h-23.3V196z M469.9,162.9l9.5-23.9l9.4,23.9H469.9z M432.6,196
			h24.5l6-15h32.4l6.1,15h25l-35.8-84.6h-22.4L432.6,196z M22.9,22.9h594.3v262.2H22.9V22.9z M640,0H0v308h640V0z M25.7,366.9h-5.6
			l-6.4,24.6c-0.6,2.1-0.6,3.8-0.7,3.8h-0.1c0,0-0.1-1.8-0.6-3.8l-5.6-24.6H0l8.9,35.6h7.5l5.5-21.1c0.6-2.3,0.9-4.7,0.9-4.7h0.1
			c0,0,0.3,2.4,0.9,4.7l5.5,21.1h7.5l9.2-35.6h-6.7l-5.9,24.6c-0.5,2-0.6,3.8-0.6,3.8h-0.1c-0.1,0-0.1-1.7-0.7-3.8L25.7,366.9z
			 M61.7,402.5h22.1V397H68.1v-9.6h12v-5.6h-12v-9.3H83v-5.6H61.7V402.5z M100.5,402.5h12.1c11,0,18.1-6.6,18.1-17.8
			c0-11.2-7.2-17.7-18.1-17.7h-12.1V402.5z M107,397v-24.5h5.3c7.1,0,11.8,4.3,11.8,12.2c0,8-4.6,12.3-11.8,12.3H107z M147.6,402.5
			h12.1c11,0,18.1-6.6,18.1-17.8c0-11.2-7.2-17.7-18.1-17.7h-12.1V402.5z M154,397v-24.5h5.3c7.1,0,11.8,4.3,11.8,12.2
			c0,8-4.6,12.3-11.8,12.3H154z M194.6,402.5h6.5v-35.6h-6.5V402.5z M220.1,402.5h6.5V382c0-2.1-0.3-5.5-0.3-5.5h0.1
			c0,0,1.6,3.5,3,5.5l13.5,20.5h6.4v-35.6h-6.4v20.6c0,2.1,0.4,5.5,0.4,5.5H243c0,0-1.6-3.5-3-5.5l-13.5-20.6h-6.5V402.5z
			 M265.8,384.7c0,11.2,8.1,18.4,17.4,18.4c6.6,0,10.3-3.8,10.3-3.8h0.1c0,0-0.1,0.8-0.1,1.5v1.7h5.5v-18.7h-11.3v5.6h5.5v4.2
			c0,0-3.6,3.7-8.9,3.7c-6.7,0-11.9-5-11.9-12.7c0-6.7,4.3-12.2,12.2-12.2c5.7,0,9.5,3.4,9.5,3.4l3.2-4.8c0,0-4.5-4.5-13.2-4.5
			C273.6,366.3,265.8,374.4,265.8,384.7z M338.6,402.5h6.5v-13.3h6.2l7.1,13.3h7.2l-7.3-13.3c-0.7-1.3-1.2-1.8-1.2-1.8v-0.1
			c3.8-1.5,6-5.5,6-9.7c0-4.7-2.3-8.1-5.8-9.7c-1.6-0.7-3.3-1-7.2-1h-11.5V402.5z M345,383.6v-11.1h4.9c5.1,0,6.5,2.1,6.5,5.5
			c0,3.6-2.2,5.6-5.6,5.6H345z M381.6,402.5h22.1V397H388v-9.6h12v-5.6h-12v-9.3h14.8v-5.6h-21.3V402.5z M417.8,384.7
			c0,11.2,8.1,18.4,17.4,18.4c6.6,0,10.3-3.8,10.3-3.8h0.1c0,0,0,0.8,0,1.5v1.7h5.5v-18.7h-11.3v5.6h5.5v4.2c0,0-3.6,3.7-8.9,3.7
			c-6.7,0-11.9-5-11.9-12.7c0-6.7,4.3-12.2,12.2-12.2c5.7,0,9.5,3.4,9.5,3.4l3.2-4.8c0,0-4.5-4.5-13.2-4.5
			C425.6,366.3,417.8,374.4,417.8,384.7z M468.3,402.5h6.5v-35.6h-6.5V402.5z M491.1,398.3c0,0,4.4,4.9,12.3,4.9
			c7.4,0,11.7-4.8,11.7-10.4c0-11.4-16.7-9.8-16.7-16.1c0-2.5,2.4-4.3,5.4-4.3c4.5,0,7.9,3.1,7.9,3.1l2.8-5.3c0,0-3.6-3.8-10.6-3.8
			c-6.8,0-11.9,4.4-11.9,10.3c0,10.9,16.8,9.8,16.8,16.2c0,2.9-2.5,4.3-5.2,4.3c-5,0-8.9-3.8-8.9-3.8L491.1,398.3z M539,402.5h6.5
			v-30h11.7v-5.6h-29.8v5.6H539V402.5z M571.9,402.5h6.5v-13.3h6.2l7.1,13.3h7.2l-7.3-13.3c-0.7-1.3-1.2-1.8-1.2-1.8v-0.1
			c3.8-1.5,6-5.5,6-9.7c0-4.7-2.3-8.1-5.8-9.7c-1.6-0.7-3.3-1-7.2-1h-11.5V402.5z M578.3,383.6v-11.1h4.9c5.1,0,6.5,2.1,6.5,5.5
			c0,3.6-2.2,5.6-5.6,5.6H578.3z M621.7,402.5h6.5v-14.9l11.8-20.7h-7.3l-5.5,10.5c-1.2,2.2-2.2,4.8-2.2,4.8h-0.1c0,0-1-2.6-2.2-4.8
			l-5.6-10.5h-7.3l11.8,20.7V402.5z"/>
	</defs>
	<clipPath id="SVGID_1_">
		<use xlink:href="#SVGID_4_"  overflow="visible"/>
	</clipPath>
	<linearGradient id="SVGID_2_" gradientUnits="userSpaceOnUse" x1="6.611570e-03" y1="206.4681" x2="645.1652" y2="206.4681">
		<stop  offset="0" style="stop-color:#FF756A"/>
		<stop  offset="0.2" style="stop-color:#FC977B"/>
		<stop  offset="0.4" style="stop-color:#FFB82D"/>
		<stop  offset="0.6" style="stop-color:#A3E048"/>
		<stop  offset="0.8" style="stop-color:#34C6A7"/>
		<stop  offset="1" style="stop-color:#199BC5"/>
	</linearGradient>
	<rect x="0" y="0" clip-path="url(#SVGID_1_)" fill="url(#SVGID_2_)" width="645.2" height="412.9"/>
</g>
</svg>
