<?xml version="1.0" encoding="UTF-8" ?>
<!DOCTYPE svg PUBLIC "-//W3C//DTD SVG 1.1//EN" "http://www.w3.org/Graphics/SVG/1.1/DTD/svg11.dtd">
<svg width="575pt" height="40pt" viewBox="0 0 575 40" version="1.1" xmlns="http://www.w3.org/2000/svg">
<path fill="rgba(0,0,0,0)" d=" M 0.00 0.00 L 575.00 0.00 L 575.00 40.00 L 0.00 40.00 L 0.00 0.00 Z" />
<path fill="#333333" d=" M 279.38 18.89 C 281.95 13.38 284.30 7.77 287.07 2.37 C 289.58 7.87 292.11 13.37 294.62 18.89 C 292.04 25.05 289.70 31.31 287.00 37.42 C 284.30 31.31 281.96 25.05 279.38 18.89 Z" />
<path fill="#333333" d=" M 272.33 12.80 C 274.79 10.88 276.57 8.15 279.37 6.67 C 278.30 9.61 275.71 11.54 273.47 13.56 C 274.54 14.87 275.67 16.13 276.62 17.53 C 277.11 19.90 274.32 21.09 273.19 22.77 C 275.68 24.96 278.11 27.28 280.04 30.01 C 276.60 29.53 274.92 25.63 272.26 23.67 C 269.43 25.24 266.34 26.91 262.98 26.45 C 258.79 26.05 255.37 23.35 252.50 20.48 C 249.56 23.65 245.53 25.84 241.15 25.99 C 230.95 26.48 221.45 22.02 212.03 18.78 C 220.37 20.40 228.37 24.23 237.02 24.15 C 242.15 24.03 247.13 21.90 250.72 18.23 C 246.13 13.00 238.75 11.39 232.09 12.50 C 225.17 13.69 218.41 15.85 212.00 18.70 C 149.62 18.85 87.22 18.65 24.84 18.80 C 22.80 19.85 20.58 21.44 18.57 19.37 C 16.25 20.47 13.88 21.47 11.56 22.57 C 7.84 21.09 4.13 19.56 0.37 18.19 C 4.23 17.00 7.79 14.93 11.73 14.03 C 14.08 14.82 16.27 15.98 18.53 16.98 C 20.35 15.49 22.66 15.50 23.98 17.69 C 85.32 17.84 146.66 17.68 208.00 17.77 C 212.11 17.97 215.88 16.09 219.69 14.84 C 227.13 12.31 234.91 9.32 242.91 10.52 C 246.64 11.04 249.89 13.13 252.51 15.76 C 255.42 12.96 258.85 10.23 263.03 9.87 C 266.40 9.45 269.59 11.00 272.33 12.80 Z" />
<path fill="#333333" d=" M 294.64 6.67 C 297.34 8.01 298.94 10.69 301.26 12.52 C 303.85 11.93 306.05 9.97 308.81 9.87 C 313.78 9.30 318.12 12.45 321.48 15.76 C 324.71 12.35 329.21 10.24 333.93 10.24 C 344.53 9.92 353.91 15.71 364.03 17.71 C 426.03 17.76 488.03 17.81 550.03 17.69 C 551.34 15.55 553.65 15.42 555.48 16.97 C 557.73 15.98 559.92 14.82 562.27 14.03 C 566.11 14.92 569.63 16.83 573.32 18.19 C 569.71 19.69 566.07 21.13 562.44 22.57 C 560.11 21.47 557.75 20.46 555.42 19.38 C 553.65 20.97 551.34 20.73 549.98 18.81 C 487.32 18.63 424.65 18.86 361.99 18.70 C 355.27 15.73 348.19 13.45 340.91 12.36 C 334.53 11.53 327.64 13.28 323.28 18.23 C 327.34 22.42 333.26 24.54 339.05 24.12 C 346.95 23.60 354.28 20.29 361.97 18.78 C 352.55 22.02 343.05 26.48 332.87 25.99 C 328.48 25.84 324.43 23.66 321.49 20.48 C 318.61 23.37 315.17 26.08 310.96 26.46 C 307.61 26.90 304.55 25.23 301.74 23.67 C 299.08 25.64 297.40 29.51 293.96 30.02 C 295.88 27.28 298.31 24.97 300.81 22.78 C 299.67 21.08 296.84 19.88 297.40 17.49 C 298.34 16.11 299.46 14.86 300.53 13.57 C 298.30 11.54 295.69 9.62 294.64 6.67 Z" />
<path fill="rgba(0,0,0,0)" d=" M 254.10 18.17 C 256.51 15.44 259.26 12.59 263.02 11.92 C 265.99 11.20 268.90 12.39 271.58 13.53 C 268.97 15.78 265.84 17.23 262.62 18.38 C 265.73 19.39 268.68 20.83 271.30 22.81 C 268.48 24.17 265.24 25.18 262.14 24.18 C 258.79 23.23 256.37 20.63 254.10 18.17 Z" />
<path fill="rgba(0,0,0,0)" d=" M 302.42 13.57 C 305.07 12.39 307.96 11.21 310.92 11.90 C 314.70 12.56 317.47 15.42 319.90 18.17 C 317.26 21.10 314.14 24.23 309.96 24.53 C 307.39 24.86 304.98 23.82 302.70 22.81 C 305.32 20.83 308.28 19.39 311.38 18.35 C 308.17 17.22 305.04 15.79 302.42 13.57 Z" />
<path fill="rgba(0,0,0,0)" d=" M 266.64 18.41 C 268.78 17.16 270.85 15.79 272.85 14.32 C 273.88 15.75 276.42 16.63 275.91 18.73 C 274.89 19.95 273.77 21.06 272.59 22.11 C 270.67 20.78 268.70 19.50 266.64 18.41 Z" />
<path fill="rgba(0,0,0,0)" d=" M 298.10 18.73 C 297.58 16.63 300.11 15.75 301.15 14.32 C 303.15 15.79 305.22 17.16 307.36 18.41 C 305.29 19.50 303.33 20.78 301.41 22.11 C 300.23 21.06 299.10 19.95 298.10 18.73 Z" />
</svg>
